HIERARCHY
ROOT Hips
{
 OFFSET 0.000000 0.000000 0.000000
 CHANNELS 6 Xposition Yposition Zposition Yrotation Xrotation Zrotation
 JOINT Chest
 {
  OFFSET 0.000000 9.585900 0.002600
  CHANNELS 3 Yrotation Xrotation Zrotation
  JOINT Chest2
  {
   OFFSET 0.000000 9.601200 -0.005300
   CHANNELS 3 Yrotation Xrotation Zrotation
   JOINT Chest3
   {
    OFFSET 0.000000 9.561800 0.000000
    CHANNELS 3 Yrotation Xrotation Zrotation
    JOINT Chest4
    {
     OFFSET 0.000000 9.552100 0.000000
     CHANNELS 3 Yrotation Xrotation Zrotation
     JOINT Neck
     {
      OFFSET 0.000000 14.453000 0.000000
      CHANNELS 3 Yrotation Xrotation Zrotation
      JOINT Head
      {
       OFFSET 0.000000 8.936500 -0.011300
       CHANNELS 3 Yrotation Xrotation Zrotation
       End Site
       {
        OFFSET 0.000000 17.073600 -0.006000
       }
      }
     }
     JOINT RightCollar
     {
      OFFSET -2.921100 9.558500 0.000000
      CHANNELS 3 Yrotation Xrotation Zrotation
      JOINT RightShoulder
      {
       OFFSET -13.519700 0.000000 0.000000
       CHANNELS 3 Yrotation Xrotation Zrotation
       JOINT RightElbow
       {
        OFFSET 0.000000 -29.696600 0.000000
        CHANNELS 3 Yrotation Xrotation Zrotation
        JOINT RightWrist
        {
         OFFSET 0.000000 -24.004700 0.000000
         CHANNELS 3 Yrotation Xrotation Zrotation
         End Site
         {
          OFFSET 0.000000 -17.728500 0.000000
         }
        }
       }
      }
     }
     JOINT LeftCollar
     {
      OFFSET 2.921100 9.558500 0.000000
      CHANNELS 3 Yrotation Xrotation Zrotation
      JOINT LeftShoulder
      {
       OFFSET 13.519700 0.000000 0.000000
       CHANNELS 3 Yrotation Xrotation Zrotation
       JOINT LeftElbow
       {
        OFFSET 0.000000 -29.696600 0.000000
        CHANNELS 3 Yrotation Xrotation Zrotation
        JOINT LeftWrist
        {
         OFFSET 0.000000 -24.004700 0.000000
         CHANNELS 3 Yrotation Xrotation Zrotation
         End Site
         {
          OFFSET 0.000000 -17.728500 0.000000
         }
        }
       }
      }
     }
    }
   }
  }
 }
 JOINT RightHip
 {
  OFFSET -7.771700 -0.012900 -0.001300
  CHANNELS 3 Yrotation Xrotation Zrotation
  JOINT RightKnee
  {
   OFFSET 0.000000 -40.869800 0.001200
   CHANNELS 3 Yrotation Xrotation Zrotation
   JOINT RightAnkle
   {
    OFFSET 0.000000 -39.717900 0.002100
    CHANNELS 3 Yrotation Xrotation Zrotation
    JOINT RightToe
    {
     OFFSET 0.000000 -4.965400 11.033500
     CHANNELS 3 Yrotation Xrotation Zrotation
     End Site
     {
      OFFSET 0.000000 -1.423100 5.872300
     }
    }
   }
  }
 }
 JOINT LeftHip
 {
  OFFSET 7.771700 -0.012900 -0.001300
  CHANNELS 3 Yrotation Xrotation Zrotation
  JOINT LeftKnee
  {
   OFFSET 0.000000 -40.869800 0.001200
   CHANNELS 3 Yrotation Xrotation Zrotation
   JOINT LeftAnkle
   {
    OFFSET 0.000000 -39.717900 0.002100
    CHANNELS 3 Yrotation Xrotation Zrotation
    JOINT LeftToe
    {
     OFFSET 0.000000 -4.965400 11.033500
     CHANNELS 3 Yrotation Xrotation Zrotation
     End Site
     {
      OFFSET 0.000000 -1.423100 5.872300
     }
    }
   }
  }
 }
}
MOTION
Frames: 11
Frame Time: 0.008333
-165.457828 48.915606 17.873299 176.261503 -32.844643 -4.398441 0.161415 18.601208 2.297901 -0.023079 2.135016 0.213111 -0.042297 3.552526 0.360331 0.002037 16.158645 1.634796 3.648638 15.734664 -2.441970 7.671597 -6.314902 -5.857387 -2.187128 -1.497490 -2.599563 7.226825 -9.659077 -14.063467 -34.861451 -42.051421 87.575079 3.483150 4.475264 -12.996183 0.276789 -1.666605 2.154325 -8.875014 -3.363010 14.009829 73.243273 -73.817653 -110.414656 2.991000 7.202921 6.875283 1.064293 -52.702119 -7.290749 -163.196219 81.665052 -151.060180 -27.997159 0.458320 0.186858 -0.020574 -13.911224 -0.731768 -12.563270 -54.148969 19.355871 -74.066309 65.222024 -79.332688 30.612180 6.892743 16.819995 0.216533 -0.192571 0.108768
-165.468420 48.910333 17.880481 176.258358 -32.849214 -4.390001 0.157274 18.612886 2.289767 -0.021081 2.136667 0.216285 -0.043568 3.556336 0.359729 0.007162 16.166118 1.644189 3.649929 15.738664 -2.441828 7.673467 -6.307566 -5.857407 -2.192564 -1.495965 -2.599820 7.238350 -9.655480 -14.051971 -34.872194 -42.071060 87.567450 3.482261 4.467270 -13.001094 0.264566 -1.670820 2.147056 -8.868624 -3.370329 14.005605 73.254150 -73.822579 -110.421139 2.980780 7.208400 6.884061 1.157893 -52.735068 -7.397728 -163.320119 81.639566 -151.156239 -27.944547 0.598970 0.238269 0.024569 -14.027684 -0.798952 -12.523209 -54.154915 19.327958 -74.067205 65.216095 -79.328691 30.611118 6.894136 16.827308 0.216753 -0.188800 0.113709
-165.476157 48.906107 17.886234 176.261842 -32.863128 -4.395673 0.150353 18.634798 2.289940 -0.019071 2.138140 0.219725 -0.044557 3.560684 0.358941 0.011897 16.180409 1.656889 3.652015 15.734740 -2.446537 7.680252 -6.295587 -5.855884 -2.193112 -1.500198 -2.601623 7.229408 -9.662017 -14.039066 -34.860733 -42.085862 87.556097 3.475095 4.447978 -13.008560 0.256781 -1.685289 2.135621 -8.875492 -3.353967 13.992409 73.320082 -73.842312 -110.468405 2.981996 7.228573 6.902715 1.183174 -52.744392 -7.431527 -163.139772 81.615956 -150.981667 -27.884952 0.712425 0.291270 0.033438 -14.113931 -0.851143 -12.511795 -54.144881 19.321586 -74.058086 65.213841 -79.324965 30.621790 6.887447 16.845220 0.204377 -0.183824 0.109084
-165.482018 48.901316 17.892967 176.254728 -32.869037 -4.400517 0.156299 18.644224 2.296616 -0.022130 2.144266 0.219887 -0.044757 3.564738 0.359896 0.019483 16.176947 1.661854 3.658417 15.753188 -2.438055 7.702029 -6.239255 -5.837564 -2.207106 -1.480339 -2.596775 7.235840 -9.679077 -14.031131 -34.866345 -42.089804 87.550960 3.474373 4.442370 -13.012550 0.253349 -1.691178 2.131216 -8.876679 -3.346265 13.985321 73.331982 -73.851015 -110.475789 2.985686 7.231163 6.917529 1.207995 -52.761356 -7.454549 -162.991041 81.596169 -150.840234 -27.804790 0.818610 0.334328 0.003474 -14.193852 -0.889027 -12.500137 -54.142498 19.326404 -74.037686 65.203415 -79.314420 30.657341 6.888395 16.882541 0.176787 -0.187944 0.088518
-165.488083 48.894961 17.901927 176.233626 -32.856385 -4.389937 0.170026 18.634312 2.294826 -0.025292 2.150647 0.218958 -0.044249 3.565109 0.362524 0.020585 16.187686 1.664042 3.666572 15.764502 -2.433666 7.727914 -6.197659 -5.827228 -2.219440 -1.449336 -2.581243 7.241812 -9.718151 -14.034596 -34.888480 -42.077916 87.535902 3.494932 4.456250 -12.989932 0.249258 -1.694073 2.125763 -8.868252 -3.359613 13.986902 73.321120 -73.852042 -110.463449 2.989595 7.232037 6.931676 1.273825 -52.807013 -7.513462 -162.817300 81.569729 -150.666066 -27.697300 0.950957 0.365101 -0.013674 -14.290875 -0.924959 -12.458657 -54.163039 19.319574 -74.026262 65.195334 -79.301750 30.668514 6.889648 16.903604 0.165929 -0.186391 0.084877
-165.497405 48.889121 17.909436 176.207363 -32.848289 -4.348349 0.169334 18.641675 2.260031 -0.025078 2.154625 0.220342 -0.033766 3.548192 0.362822 0.017228 16.204803 1.671298 3.678148 15.779121 -2.430646 7.734411 -6.198670 -5.834304 -2.217362 -1.457961 -2.584222 7.234400 -9.718460 -14.026493 -34.884651 -42.089228 87.529166 3.487631 4.455472 -12.993961 0.236539 -1.695290 2.114649 -8.861064 -3.365057 13.983482 73.322337 -73.859701 -110.450083 2.993473 7.228746 6.941565 1.399338 -52.860292 -7.638613 -162.850012 81.535388 -150.678334 -27.650079 1.081915 0.401255 0.085547 -14.395170 -0.991606 -12.372338 -54.183250 19.266865 -74.002896 65.198663 -79.291286 30.674365 6.886643 16.938784 0.144657 -0.189353 0.082665
-165.499617 48.886745 17.913301 176.209293 -32.866288 -4.354681 0.172074 18.665541 2.265135 -0.026041 2.158230 0.220799 -0.038935 3.551386 0.365067 0.016619 16.224290 1.674254 3.704365 15.819784 -2.418643 7.727721 -6.234587 -5.849877 -2.213944 -1.477272 -2.584229 7.213251 -9.711206 -14.008404 -34.868899 -42.113462 87.521074 3.481600 4.450675 -12.992503 0.226396 -1.712332 2.102659 -8.859748 -3.363087 13.983408 73.325861 -73.864867 -110.435830 2.996376 7.225764 6.950329 1.408376 -52.859506 -7.648516 -162.735620 81.524122 -150.562322 -27.669122 1.159357 0.451016 0.074291 -14.455746 -1.032767 -12.349517 -54.167813 19.262472 -74.009956 65.188467 -79.291632 30.678915 6.882374 16.928035 0.142699 -0.185145 0.096316
-165.499739 48.884982 17.917146 176.224102 -32.882140 -4.372310 0.165404 18.684137 2.275281 -0.026866 2.160908 0.221037 -0.037736 3.564839 0.364111 0.015056 16.210649 1.675118 3.717260 15.853391 -2.409499 7.775912 -6.142333 -5.821467 -2.221339 -1.458396 -2.573597 7.219233 -9.730609 -14.017884 -34.869813 -42.109272 87.505950 3.481689 4.444339 -12.970755 0.201751 -1.685537 2.079080 -8.857163 -3.372776 14.005991 73.346428 -73.868438 -110.433361 2.999470 7.227653 6.960402 1.398741 -52.857913 -7.650214 -162.714326 81.516034 -150.537037 -27.682239 1.224287 0.493436 0.073779 -14.510367 -1.072557 -12.336949 -54.149118 19.273339 -74.010658 65.163889 -79.283604 30.660701 6.874520 16.919076 0.168444 -0.165395 0.099536
-165.501388 48.882656 17.922403 176.214970 -32.885669 -4.361137 0.168607 18.694380 2.268951 -0.025480 2.158189 0.220388 -0.037713 3.566093 0.363955 0.013841 16.221588 1.673530 3.732503 15.875266 -2.400033 7.799578 -6.101875 -5.809626 -2.231319 -1.440989 -2.554740 7.218076 -9.749593 -14.028323 -34.873452 -42.111193 87.476038 3.486443 4.445718 -12.954762 0.196808 -1.687877 2.068820 -8.873821 -3.373654 14.014258 73.367783 -73.872162 -110.430112 3.000850 7.228999 6.965730 1.432185 -52.875292 -7.685124 -162.757182 81.502423 -150.579634 -27.634226 1.285782 0.511837 0.042428 -14.561904 -1.090862 -12.307322 -54.142267 19.269479 -73.984023 65.150407 -79.265997 30.662245 6.868410 16.928746 0.162868 -0.157833 0.102955
-165.501569 48.880887 17.928057 176.203383 -32.885352 -4.351733 0.175708 18.701243 2.266560 -0.025697 2.159908 0.220360 -0.043227 3.578358 0.364726 0.017318 16.234800 1.671304 3.749584 15.877206 -2.394414 7.794639 -6.117563 -5.814121 -2.234327 -1.463174 -2.549263 7.202717 -9.735668 -14.013145 -34.865797 -42.134438 87.460408 3.493122 4.446033 -12.940848 0.196841 -1.710059 2.056347 -8.898206 -3.370541 14.011628 73.387704 -73.886661 -110.421832 3.002956 7.229456 6.972490 1.452738 -52.895407 -7.705817 -162.755698 81.489906 -150.584790 -27.565220 1.345859 0.519262 0.036915 -14.609632 -1.109373 -12.288414 -54.136995 19.273762 -73.954648 65.144192 -79.245326 30.659888 6.860757 16.937365 0.157761 -0.148899 0.102326
-165.502648 48.879390 17.934171 176.188467 -32.879200 -4.331193 0.173878 18.706518 2.250365 -0.024008 2.157618 0.221390 -0.037104 3.571800 0.363695 0.020046 16.239407 1.671003 3.765142 15.902876 -2.388790 7.815708 -6.079215 -5.798582 -2.239902 -1.459709 -2.544992 7.202871 -9.732992 -14.005329 -34.863877 -42.137587 87.438312 3.500138 4.442352 -12.930511 0.193864 -1.705757 2.044223 -8.900135 -3.378076 14.023317 73.364448 -73.884769 -110.393757 3.004526 7.230176 6.970112 1.483429 -52.917060 -7.734710 -162.705490 81.480778 -150.536409 -27.529757 1.378917 0.517912 0.100116 -14.631434 -1.135221 -12.256811 -54.140383 19.264425 -73.916778 65.127486 -79.220194 30.675027 6.865202 16.959332 0.148644 -0.149108 0.091419
